<svg width="284" height="74" viewBox="0 0 284 74" fill="none" xmlns="http://www.w3.org/2000/svg">
<path d="M217.11 0C211.562 0 206.303 1.25157 201.593 3.49097C215.549 4.66127 227.218 13.7879 231.955 26.2654C234.243 25.575 236.673 25.1975 239.191 25.1975C252.802 25.1975 263.841 36.1252 263.841 49.5987C263.841 63.0723 252.802 74 239.191 74H258.749C272.692 74 284 62.5519 284 48.4368C284 34.3216 272.692 22.8736 258.749 22.8736C256.17 22.8736 253.681 23.2691 251.336 23.9924C246.134 9.97893 232.772 0 217.11 0Z" fill="white"/>
<path d="M11.2285 60.5455V26.2975H35.0818V33.02H19.497V40.0435H33.8624V46.7827H19.497V53.823H35.0818V60.5455H11.2285Z" fill="white"/>
<path d="M52.2368 61.0304C49.5307 61.0304 47.2089 60.473 45.2712 59.3581C43.3447 58.2433 41.8636 56.6937 40.828 54.7093C39.7923 52.7137 39.2745 50.406 39.2745 47.7861C39.2745 45.1551 39.7923 42.8473 40.828 40.8629C41.8747 38.8674 43.3614 37.3122 45.2879 36.1973C47.2256 35.0825 49.5363 34.5251 52.2201 34.5251C54.592 34.5251 56.6578 34.9543 58.4172 35.8127C60.1879 36.6711 61.5687 37.8863 62.5598 39.4582C63.5621 41.019 64.091 42.8529 64.1467 44.96H56.513C56.3571 43.6445 55.9116 42.6132 55.1767 41.8663C54.4528 41.1193 53.5063 40.7459 52.337 40.7459C51.3904 40.7459 50.5608 41.0134 49.8481 41.5486C49.1354 42.0725 48.5786 42.8529 48.1777 43.8897C47.7879 44.9154 47.5931 46.1863 47.5931 47.7025C47.5931 49.2187 47.7879 50.5007 48.1777 51.5487C48.5786 52.5855 49.1354 53.3714 49.8481 53.9066C50.5608 54.4305 51.3904 54.6925 52.337 54.6925C53.0942 54.6925 53.7624 54.5309 54.3415 54.2076C54.9317 53.8843 55.4161 53.4105 55.7947 52.7862C56.1733 52.1507 56.4128 51.3815 56.513 50.4784H64.1467C64.0688 52.5966 63.5398 54.4473 62.5598 56.0303C61.591 57.6134 60.2268 58.8453 58.4674 59.726C56.719 60.5956 54.6421 61.0304 52.2368 61.0304Z" fill="white"/>
<path d="M80.3036 61.0304C77.6087 61.0304 75.2924 60.4786 73.3548 59.3749C71.4282 58.26 69.9416 56.7104 68.8948 54.726C67.8592 52.7304 67.3413 50.4171 67.3413 47.7861C67.3413 45.1439 67.8592 42.8306 68.8948 40.8462C69.9416 38.8506 71.4282 37.301 73.3548 36.1973C75.2924 35.0825 77.6087 34.5251 80.3036 34.5251C82.9985 34.5251 85.3092 35.0825 87.2358 36.1973C89.1734 37.301 90.6601 38.8506 91.6957 40.8462C92.7425 42.8306 93.2659 45.1439 93.2659 47.7861C93.2659 50.4171 92.7425 52.7304 91.6957 54.726C90.6601 56.7104 89.1734 58.26 87.2358 59.3749C85.3092 60.4786 82.9985 61.0304 80.3036 61.0304ZM80.3537 54.8598C81.3337 54.8598 82.1633 54.5588 82.8426 53.9567C83.5219 53.3547 84.0397 52.5186 84.3961 51.4483C84.7636 50.3781 84.9473 49.1406 84.9473 47.7359C84.9473 46.3089 84.7636 45.0603 84.3961 43.9901C84.0397 42.9198 83.5219 42.0837 82.8426 41.4817C82.1633 40.8796 81.3337 40.5786 80.3537 40.5786C79.3404 40.5786 78.4829 40.8796 77.7813 41.4817C77.0909 42.0837 76.5619 42.9198 76.1945 43.9901C75.8381 45.0603 75.6599 46.3089 75.6599 47.7359C75.6599 49.1406 75.8381 50.3781 76.1945 51.4483C76.5619 52.5186 77.0909 53.3547 77.7813 53.9567C78.4829 54.5588 79.3404 54.8598 80.3537 54.8598Z" fill="white"/>
<path d="M113.87 43.5385V49.843H98.0349V43.5385H113.87Z" fill="white"/>
<path d="M119.637 60.5455V26.2975H133.769C136.33 26.2975 138.541 26.7602 140.4 27.6855C142.271 28.5997 143.713 29.9152 144.727 31.632C145.74 33.3377 146.247 35.3612 146.247 37.7024C146.247 40.077 145.729 42.0948 144.693 43.7559C143.658 45.4059 142.188 46.6657 140.283 47.5353C138.379 48.3937 136.124 48.8229 133.518 48.8229H124.582V42.3011H131.982C133.229 42.3011 134.27 42.1394 135.105 41.8161C135.952 41.4817 136.592 40.98 137.026 40.3111C137.46 39.631 137.678 38.7614 137.678 37.7024C137.678 36.6432 137.46 35.7681 137.026 35.0769C136.592 34.3745 135.952 33.8506 135.105 33.505C134.259 33.1482 133.218 32.9698 131.982 32.9698H127.906V60.5455H119.637ZM138.897 44.8931L147.416 60.5455H138.396L130.044 44.8931H138.897Z" fill="white"/>
<path d="M162.253 61.0304C159.558 61.0304 157.242 60.4786 155.304 59.3749C153.378 58.26 151.891 56.7104 150.845 54.726C149.809 52.7304 149.291 50.4171 149.291 47.7861C149.291 45.1439 149.809 42.8306 150.845 40.8462C151.891 38.8506 153.378 37.301 155.304 36.1973C157.242 35.0825 159.558 34.5251 162.253 34.5251C164.948 34.5251 167.259 35.0825 169.185 36.1973C171.123 37.301 172.61 38.8506 173.645 40.8462C174.692 42.8306 175.216 45.1439 175.216 47.7861C175.216 50.4171 174.692 52.7304 173.645 54.726C172.61 56.7104 171.123 58.26 169.185 59.3749C167.259 60.4786 164.948 61.0304 162.253 61.0304ZM162.303 54.8598C163.283 54.8598 164.113 54.5588 164.792 53.9567C165.472 53.3547 165.989 52.5186 166.346 51.4483C166.713 50.3781 166.897 49.1406 166.897 47.7359C166.897 46.3089 166.713 45.0603 166.346 43.9901C165.989 42.9198 165.472 42.0837 164.792 41.4817C164.113 40.8796 163.283 40.5786 162.303 40.5786C161.29 40.5786 160.433 40.8796 159.731 41.4817C159.041 42.0837 158.512 42.9198 158.144 43.9901C157.788 45.0603 157.61 46.3089 157.61 47.7359C157.61 49.1406 157.788 50.3781 158.144 51.4483C158.512 52.5186 159.041 53.3547 159.731 53.9567C160.433 54.5588 161.29 54.8598 162.303 54.8598Z" fill="white"/>
<path d="M195.954 49.4584V34.8595H204.105V60.5455H196.321V55.7628H196.054C195.486 57.3347 194.517 58.5833 193.147 59.5086C191.789 60.4228 190.146 60.8799 188.22 60.8799C186.471 60.8799 184.935 60.4786 183.609 59.6759C182.284 58.8732 181.254 57.7528 180.519 56.3146C179.784 54.8653 179.411 53.1708 179.4 51.2309V34.8595H187.568V49.6256C187.579 51.0191 187.947 52.1172 188.671 52.9199C189.395 53.7226 190.38 54.124 191.627 54.124C192.44 54.124 193.17 53.9456 193.815 53.5888C194.473 53.2209 194.99 52.6914 195.369 52.0002C195.759 51.2978 195.954 50.4506 195.954 49.4584Z" fill="white"/>
<path d="M223.787 34.8595V40.8796H207.6V34.8595H223.787ZM210.991 28.7056H219.16V52.4684C219.16 52.9701 219.238 53.377 219.393 53.6892C219.56 53.9902 219.8 54.2076 220.112 54.3414C220.424 54.464 220.797 54.5253 221.231 54.5253C221.543 54.5253 221.871 54.4974 222.216 54.4417C222.573 54.3748 222.84 54.3191 223.018 54.2745L224.254 60.1776C223.865 60.289 223.313 60.4284 222.601 60.5956C221.899 60.7628 221.058 60.8688 220.078 60.9133C218.163 61.0025 216.52 60.7796 215.151 60.2444C213.792 59.6982 212.751 58.8509 212.027 57.7026C211.314 56.5543 210.969 55.1106 210.991 53.3714V28.7056Z" fill="white"/>
<path d="M239.672 61.0304C236.988 61.0304 234.672 60.5009 232.723 59.4418C230.786 58.3715 229.293 56.8498 228.247 54.8765C227.211 52.8921 226.693 50.5342 226.693 47.8028C226.693 45.1495 227.216 42.8306 228.263 40.8462C229.31 38.8506 230.786 37.301 232.69 36.1973C234.594 35.0825 236.838 34.5251 239.422 34.5251C241.248 34.5251 242.918 34.8093 244.433 35.3779C245.947 35.9465 247.256 36.7882 248.358 37.903C249.461 39.0179 250.318 40.3947 250.931 42.0335C251.543 43.6612 251.849 45.5285 251.849 47.6356V49.6757H229.549V44.9265H244.249C244.238 44.0569 244.032 43.2821 243.631 42.6021C243.23 41.922 242.679 41.3925 241.977 41.0134C241.287 40.6232 240.491 40.4281 239.589 40.4281C238.675 40.4281 237.857 40.6344 237.133 41.0469C236.409 41.4482 235.836 42.0001 235.413 42.7024C234.989 43.3936 234.767 44.1796 234.744 45.0603V49.8931C234.744 50.9411 234.95 51.8608 235.362 52.6524C235.774 53.4328 236.359 54.0404 237.116 54.4751C237.874 54.9099 238.776 55.1273 239.822 55.1273C240.546 55.1273 241.203 55.027 241.793 54.8263C242.384 54.6256 242.89 54.3302 243.314 53.94C243.737 53.5498 244.054 53.0704 244.266 52.5019L251.766 52.7193C251.454 54.4027 250.769 55.8687 249.711 57.1173C248.664 58.3548 247.289 59.3191 245.585 60.0103C243.881 60.6904 241.91 61.0304 239.672 61.0304Z" fill="white"/>
</svg>
